<svg width="21" height="20" viewBox="0 0 21 20" fill="none" xmlns="http://www.w3.org/2000/svg">
<path fill-rule="evenodd" clip-rule="evenodd" d="M11.1086 4.55806C10.9914 4.44085 10.8324 4.375 10.6666 4.375C10.5009 4.375 10.3419 4.44085 10.2247 4.55806C10.1075 4.67527 10.0416 4.83424 10.0416 5V9.375H5.66663C5.50087 9.375 5.34189 9.44085 5.22468 9.55806C5.10747 9.67527 5.04163 9.83424 5.04163 10C5.04163 10.1658 5.10747 10.3247 5.22468 10.4419C5.34189 10.5592 5.50087 10.625 5.66663 10.625H10.0416V15C10.0416 15.1658 10.1075 15.3247 10.2247 15.4419C10.3419 15.5592 10.5009 15.625 10.6666 15.625C10.8324 15.625 10.9914 15.5592 11.1086 15.4419C11.2258 15.3247 11.2916 15.1658 11.2916 15V10.625H15.6666C15.8324 10.625 15.9914 10.5592 16.1086 10.4419C16.2258 10.3247 16.2916 10.1658 16.2916 10C16.2916 9.83424 16.2258 9.67527 16.1086 9.55806C15.9914 9.44085 15.8324 9.375 15.6666 9.375H11.2916V5C11.2916 4.83424 11.2258 4.67527 11.1086 4.55806Z" fill="#ACACAC"/>
</svg>
