<svg width="28" height="58" viewBox="0 0 28 58" fill="none" xmlns="http://www.w3.org/2000/svg">
<path fill-rule="evenodd" clip-rule="evenodd" d="M1.42244 56.7986C1.24783 56.5954 1.1093 56.354 1.01477 56.0882C0.920248 55.8225 0.871592 55.5376 0.871592 55.2498C0.871592 54.9621 0.920248 54.6772 1.01477 54.4114C1.1093 54.1457 1.24783 53.9043 1.42244 53.7011L22.5987 28.9998L1.42245 4.29859C1.07037 3.88784 0.87258 3.33074 0.872581 2.74984C0.872581 2.16895 1.07037 1.61185 1.42245 1.20109C1.77452 0.790338 2.25204 0.55958 2.74995 0.55958C3.24786 0.55958 3.72537 0.790338 4.07745 1.20109L26.5774 27.4511C26.7521 27.6543 26.8906 27.8957 26.9851 28.1614C27.0796 28.4272 27.1283 28.7121 27.1283 28.9998C27.1283 29.2876 27.0796 29.5725 26.9851 29.8382C26.8906 30.104 26.7521 30.3454 26.5774 30.5486L4.07744 56.7986C3.90327 57.0023 3.69636 57.1639 3.46857 57.2742C3.24077 57.3845 2.99657 57.4413 2.74994 57.4413C2.50332 57.4413 2.25911 57.3845 2.03132 57.2742C1.80352 57.1639 1.59661 57.0023 1.42244 56.7986V56.7986Z" fill="white"/>
</svg>
